HIERARCHY
ROOT Hips
{
  OFFSET 0.000000 0.000000 0.000000
  CHANNELS 6 Xposition Yposition Zposition Xrotation Yrotation Zrotation
  JOINT Spine
  {
    OFFSET 0.948386 -15.154194 -11.793467
    CHANNELS 3 Xrotation Yrotation Zrotation
    JOINT Chest
    {
      OFFSET 0.948386 -15.154194 -11.793467
      CHANNELS 3 Xrotation Yrotation Zrotation
      JOINT Neck
      {
        OFFSET 0.343935 -7.888764 -12.246062
        CHANNELS 3 Xrotation Yrotation Zrotation
        JOINT Head
        {
          OFFSET 3.449240 8.135784 -9.475148
          CHANNELS 3 Xrotation Yrotation Zrotation
          End Site
          {
            OFFSET 0.0 5.0 2.0
          }
        }
      }
      JOINT LeftShoulder
      {
        OFFSET 18.256485 -2.701226 6.607737
        CHANNELS 3 Xrotation Yrotation Zrotation
        JOINT LeftArm
        {
          OFFSET -1.857336 20.561935 -9.062022
          CHANNELS 3 Xrotation Yrotation Zrotation
          JOINT LeftForeArm
          {
            OFFSET -8.120155 5.170765 -15.256390
            CHANNELS 3 Xrotation Yrotation Zrotation
            JOINT LeftHand
            {
              OFFSET -5.000000 0.000000 0.000000
              CHANNELS 3 Xrotation Yrotation Zrotation
              End Site
              {
                OFFSET -3.0 0.0 2.0
              }
            }
          }
        }
      }
      JOINT RightShoulder
      {
        OFFSET -18.256485 2.701226 -6.607737
        CHANNELS 3 Xrotation Yrotation Zrotation
        JOINT RightArm
        {
          OFFSET 0.145261 22.760435 5.011797
          CHANNELS 3 Xrotation Yrotation Zrotation
          JOINT RightForeArm
          {
            OFFSET 16.968781 17.889396 0.802253
            CHANNELS 3 Xrotation Yrotation Zrotation
            JOINT RightHand
            {
              OFFSET 6.881393 3.329501 -1.650932
              CHANNELS 3 Xrotation Yrotation Zrotation
              End Site
              {
                OFFSET 3.0 0.0 2.0
              }
            }
          }
        }
      }
    }
  }
  JOINT LeftUpLeg
  {
    OFFSET 12.292892 -2.290059 2.634992
    CHANNELS 3 Xrotation Yrotation Zrotation
    JOINT LeftLeg
    {
      OFFSET 11.116017 10.258207 -32.118153
      CHANNELS 3 Xrotation Yrotation Zrotation
      JOINT LeftFoot
      {
        OFFSET 6.155865 37.508751 5.082990
        CHANNELS 3 Xrotation Yrotation Zrotation
        JOINT LeftToeBase
        {
          OFFSET 6.123289 14.481330 -9.623508
          CHANNELS 3 Xrotation Yrotation Zrotation
          End Site
          {
            OFFSET 0.0 -1.0 3.0
          }
        }
      }
    }
  }
  JOINT RightUpLeg
  {
    OFFSET -12.292892 2.290059 -2.634992
    CHANNELS 3 Xrotation Yrotation Zrotation
    JOINT RightLeg
    {
      OFFSET 27.109585 13.262190 -15.009057
      CHANNELS 3 Xrotation Yrotation Zrotation
      JOINT RightFoot
      {
        OFFSET 36.069271 25.407405 17.727438
        CHANNELS 3 Xrotation Yrotation Zrotation
        JOINT RightToeBase
        {
          OFFSET 11.695868 11.183614 -5.192339
          CHANNELS 3 Xrotation Yrotation Zrotation
          End Site
          {
            OFFSET 0.0 -1.0 3.0
          }
        }
      }
    }
  }
}
MOTION
Frames: 17
Frame Time: 0.066667
0.000000 0.000000 0.000000 0.000000 0.000000 0.000000 0.000000 0.000000 0.000000 0.000000 0.000000 0.000000 0.000000 0.000000 0.000000 0.000000 0.000000 0.000000 0.000000 0.000000 0.000000 0.000000 0.000000 0.000000 12.027709 -43.831600 -29.347395 0.000000 0.000000 0.000000 0.000000 0.000000 0.000000 0.000000 0.000000 0.000000 0.000000 0.000000 0.000000 0.000000 0.000000 0.000000 0.000000 0.000000 0.000000 0.000000 0.000000 0.000000 60.985325 -20.292978 -12.032071 0.000000 0.000000 0.000000 0.000000 0.000000 0.000000 0.000000 0.000000 0.000000 26.307912 -24.867491 -5.899301 0.000000 0.000000 0.000000
0.000000 0.000000 0.000000 0.084364 -0.641332 -0.927784 -2.203915 -0.532717 0.530838 0.416834 -0.235926 -1.243703 1.498416 -3.306500 -2.389239 0.000000 0.000000 0.000000 0.833231 -1.469356 -3.563951 3.419554 2.884171 -0.774963 12.639828 -42.111147 -32.099644 0.000000 0.000000 0.000000 -3.469892 -1.008236 5.455533 -5.025334 4.685585 -1.911782 -1.769483 2.629727 -1.874435 0.000000 0.000000 0.000000 1.975162 -1.901598 0.043971 -3.911606 0.586914 0.523040 66.184141 -20.820582 -21.445671 0.000000 0.000000 0.000000 2.667478 0.775806 5.564584 -2.101564 -4.071894 9.717696 29.939507 -27.537959 -8.016193 0.000000 0.000000 0.000000
0.000000 0.000000 0.000000 -0.101198 -2.663023 -1.659066 -4.545934 -0.992195 1.000280 -0.079830 -2.204973 -0.644919 1.131137 -2.725242 -1.989474 0.000000 0.000000 0.000000 5.361201 -2.363604 -7.310979 3.276268 5.041342 0.113510 10.506234 -38.142613 -29.785419 0.000000 0.000000 0.000000 -5.989139 -1.438334 8.872390 -6.119613 5.560953 -4.232967 -1.796571 1.480973 -4.167119 0.000000 0.000000 0.000000 3.493635 -4.494454 -0.372531 -6.893372 1.173284 -0.682110 64.343410 -20.541169 -24.793356 0.000000 0.000000 0.000000 4.428047 -1.976204 6.603676 -3.145265 -1.734982 8.994048 29.218486 -26.904262 -10.927328 0.000000 0.000000 0.000000
0.000000 0.000000 0.000000 0.170851 -2.299698 -2.562338 -3.017908 -1.169894 1.337719 0.073604 -1.154047 -0.657753 0.381715 -2.527655 -2.062417 0.000000 0.000000 0.000000 8.279538 -2.061302 -7.763083 4.229858 7.146540 0.458153 7.429458 -34.226868 -23.814684 0.000000 0.000000 0.000000 -10.112719 -1.094687 8.941957 -7.919049 6.857394 -7.827508 -3.906274 2.929774 -8.897121 0.000000 0.000000 0.000000 1.406750 -5.988583 -1.534840 2.610400 -0.480033 0.314906 62.104643 -20.471103 -14.539695 0.000000 0.000000 0.000000 7.587088 2.871609 16.558181 -0.160035 -7.367071 9.639984 29.822728 -27.657029 -3.671511 0.000000 0.000000 0.000000
0.000000 0.000000 0.000000 0.212766 -2.237127 -2.699227 -3.507763 -1.251887 1.421990 0.087005 -0.397913 -0.399643 -0.808177 -1.408469 -1.491265 0.000000 0.000000 0.000000 7.785676 -1.834713 -6.925887 4.935257 9.154417 0.929384 6.953082 -34.168767 -22.362806 0.000000 0.000000 0.000000 -10.831723 -1.043841 9.028777 -7.495187 6.435631 -8.880109 -3.332705 1.740857 -9.279838 0.000000 0.000000 0.000000 -0.495005 -5.425016 -1.910374 2.103000 0.450265 -5.180551 63.717555 -20.566132 -21.632315 0.000000 0.000000 0.000000 9.050352 7.408245 22.185841 -1.232969 -16.302580 20.324386 32.051604 -30.438581 8.458093 0.000000 0.000000 0.000000
0.000000 0.000000 0.000000 0.163854 -2.362290 -2.576086 -4.712531 -1.652669 1.915957 -0.027047 -0.117116 0.026801 -2.159180 0.460513 -0.392433 0.000000 0.000000 0.000000 7.345530 -2.077363 -7.395950 5.093730 10.802267 1.541793 6.667046 -33.609452 -21.832616 0.000000 0.000000 0.000000 -12.255935 -1.181270 11.368671 -7.306952 6.342096 -8.002584 -2.846452 1.750767 -7.512484 0.000000 0.000000 0.000000 -1.503480 -6.326945 -2.497007 2.020429 0.739780 -7.024232 67.118556 -20.456049 -30.563000 0.000000 0.000000 0.000000 6.866400 13.988893 21.714140 -7.577770 -20.522151 35.382873 35.190817 -34.624801 16.507381 0.000000 0.000000 0.000000
0.000000 0.000000 0.000000 0.107876 -2.296423 -2.289013 -5.675662 -1.687147 1.919286 0.346454 2.063374 -0.113157 -3.240885 0.289257 -0.916776 0.000000 0.000000 0.000000 8.786584 -1.876663 -7.476640 4.000386 13.676043 3.252402 4.625354 -29.004438 -17.748477 0.000000 0.000000 0.000000 -14.179841 -1.062083 12.282506 -8.598665 7.291430 -9.295431 -2.968063 0.874320 -9.785231 0.000000 0.000000 0.000000 -2.391024 -5.574639 -2.518357 0.734933 0.292603 -2.917671 67.837453 -21.045192 -20.441192 0.000000 0.000000 0.000000 1.529760 18.726952 15.237086 -7.156904 -5.895188 22.753573 34.621164 -32.444304 5.362934 0.000000 0.000000 0.000000
0.000000 0.000000 0.000000 -0.057871 -2.252568 -1.544400 -6.625838 -1.898436 2.181020 0.389603 2.780986 0.075255 -3.641170 1.287774 -0.253145 0.000000 0.000000 0.000000 11.124962 -1.685882 -8.013554 3.690461 14.680362 3.815539 4.309683 -28.342415 -16.951082 0.000000 0.000000 0.000000 -12.876692 -1.325982 13.357898 -10.535302 8.973897 -8.131085 -2.832782 1.603851 -7.761796 0.000000 0.000000 0.000000 -0.754547 -6.698564 -2.402142 3.888091 0.629733 -7.495371 61.987546 -20.345538 -27.407654 0.000000 0.000000 0.000000 -1.846308 29.053576 15.040720 -12.315778 -7.818454 36.523656 41.659179 -39.749913 10.668908 0.000000 0.000000 0.000000
0.000000 0.000000 0.000000 0.003908 -2.134735 -1.723880 -6.695913 -2.160755 2.560099 0.291779 2.015011 0.023980 -2.937625 -0.410330 -1.382718 0.000000 0.000000 0.000000 11.579194 -1.438817 -7.487131 5.325520 16.201951 3.796354 4.354986 -28.300274 -17.152987 0.000000 0.000000 0.000000 -12.512838 -1.453273 14.105000 -10.170074 8.609774 -8.738998 -2.851556 1.411076 -8.226660 0.000000 0.000000 0.000000 -6.596362 -5.482116 -3.713496 2.423496 0.548695 -6.056188 63.221356 -20.459032 -24.751300 0.000000 0.000000 0.000000 3.778791 25.103656 21.740619 -9.151443 -14.414299 34.446337 37.705948 -37.964209 19.829269 0.000000 0.000000 0.000000
0.000000 0.000000 0.000000 0.037676 -1.941100 -1.727397 -6.574211 -2.294920 2.759458 0.302193 1.587570 -0.189152 -3.170202 -1.513234 -2.366673 0.000000 0.000000 0.000000 11.228855 -1.381153 -7.148195 5.774102 13.564248 2.424880 6.387413 -32.704888 -21.534696 0.000000 0.000000 0.000000 -12.877981 -1.506911 15.058096 -10.597753 8.914778 -9.100461 -2.598266 0.717560 -8.753889 0.000000 0.000000 0.000000 -6.073027 -6.418954 -3.823271 3.743893 0.561698 -7.003926 64.177697 -20.507940 -25.592886 0.000000 0.000000 0.000000 4.218831 26.481526 22.984959 -8.985164 -15.443575 34.827478 39.131355 -38.968162 17.631047 0.000000 0.000000 0.000000
0.000000 0.000000 0.000000 -0.056445 -1.541630 -1.011845 -6.425070 -2.272018 2.731009 0.547011 1.855967 -0.780129 -3.104689 -2.010865 -2.755713 0.000000 0.000000 0.000000 9.787267 -1.353651 -6.425695 6.873569 14.178473 2.214557 8.602689 -33.744562 -27.855564 0.000000 0.000000 0.000000 -13.588769 -1.329860 14.282999 -11.119056 9.330243 -9.129106 -2.999232 1.504807 -8.569382 0.000000 0.000000 0.000000 -5.769307 -6.012543 -3.623635 5.916145 0.202716 -6.270440 67.915591 -20.554107 -29.209852 0.000000 0.000000 0.000000 -6.050093 35.058509 11.788255 -11.021130 -12.546552 37.121812 48.790063 -44.889141 7.001630 0.000000 0.000000 0.000000
0.000000 0.000000 0.000000 -0.060990 -1.455104 -0.924185 1.873708 -2.122472 2.788590 0.739538 0.968075 -1.684947 -5.839257 -0.392644 -2.344537 0.000000 0.000000 0.000000 7.229061 -1.578264 -6.003493 7.812425 13.115580 1.310027 9.834195 -33.919289 -31.508020 0.000000 0.000000 0.000000 -15.729776 -0.911445 12.617062 -9.086272 7.995354 -5.939917 -3.261976 2.889911 -6.747142 0.000000 0.000000 0.000000 -3.829270 -6.987597 -3.360630 17.603054 -0.784893 -7.343868 62.985385 -20.380270 -28.479752 0.000000 0.000000 0.000000 -2.059643 34.493215 17.045289 -9.152057 -25.475785 41.146859 36.726877 -39.944949 32.532144 0.000000 0.000000 0.000000
0.000000 0.000000 0.000000 -0.083010 -1.253027 -0.666447 2.660631 -2.223712 2.936400 0.821135 1.381356 -1.757687 -6.810066 -0.358673 -2.636448 0.000000 0.000000 0.000000 6.649963 -1.327924 -5.113902 6.576310 10.948228 0.913152 11.972533 -38.050869 -33.829290 0.000000 0.000000 0.000000 -16.424142 -0.843042 12.792977 -9.002493 8.166040 -3.425109 -2.465626 2.544990 -4.575194 0.000000 0.000000 0.000000 -4.571196 -5.375656 -3.096484 18.755874 -0.929526 -7.265830 65.309253 -20.450317 -29.365515 0.000000 0.000000 0.000000 0.512120 35.714100 21.121046 -7.087498 -28.040307 38.766436 38.236867 -40.772121 28.533048 0.000000 0.000000 0.000000
0.000000 0.000000 0.000000 0.032876 -0.498116 -0.574911 5.007546 -2.140238 2.900528 0.551266 1.681350 -0.864358 -9.094409 0.438036 -2.781898 0.000000 0.000000 0.000000 1.441098 -0.980802 -2.602498 2.367961 7.236069 1.401911 9.899379 -41.471195 -25.770616 0.000000 0.000000 0.000000 -16.221533 -0.523731 8.277449 -7.956419 7.091425 -5.225345 -2.305364 2.076596 -4.892423 0.000000 0.000000 0.000000 -8.427035 -2.621431 -3.510175 18.474089 -2.472343 -2.121990 72.289263 -21.083765 -25.283747 0.000000 0.000000 0.000000 1.116701 33.470955 21.131585 0.244319 -31.652973 28.507587 37.374392 -39.137118 26.370586 0.000000 0.000000 0.000000
0.000000 0.000000 0.000000 0.015592 -0.458473 -0.462676 6.549645 -2.241912 3.059229 0.520343 -0.147530 -1.496015 -8.185242 -5.613658 -7.088335 0.000000 0.000000 0.000000 7.600307 -0.050183 -1.974472 6.853107 8.313379 -0.351409 13.547060 -39.843852 -36.289838 0.000000 0.000000 0.000000 -19.034082 -0.319905 8.626386 -8.309327 8.123316 2.814998 -0.718246 5.492685 6.637477 0.000000 0.000000 0.000000 -10.080318 -3.358664 -4.196981 25.223496 -3.158469 -3.144868 68.452465 -20.553280 -29.554559 0.000000 0.000000 0.000000 -9.973898 40.817741 9.067181 1.743080 -32.817677 26.830662 41.329324 -43.573751 25.626634 0.000000 0.000000 0.000000
0.000000 0.000000 0.000000 -0.154945 -0.177856 0.563776 6.039913 -2.949124 3.865300 0.825295 0.450416 -2.121921 -7.446305 -3.732685 -5.434270 0.000000 0.000000 0.000000 1.287736 -1.219522 -3.116804 4.469732 6.999593 0.281472 12.682337 -40.199369 -33.784735 0.000000 0.000000 0.000000 -18.378659 -0.097938 3.759387 -7.834506 8.244540 9.125096 1.112908 4.864087 12.479483 0.000000 0.000000 0.000000 -9.775452 -4.156916 -4.298658 26.490650 -4.112206 -1.178308 66.276890 -20.604969 -26.613023 0.000000 0.000000 0.000000 -8.220232 43.658016 12.478225 -7.223693 -27.641734 38.798668 45.297876 -49.254129 28.755431 0.000000 0.000000 0.000000
0.000000 0.000000 0.000000 -0.495306 -0.046749 2.257242 4.735475 -3.850779 4.920418 1.056194 1.364447 -2.436849 -7.599680 -2.050565 -4.182060 0.000000 0.000000 0.000000 4.207169 0.180056 -0.488374 4.258541 8.178575 0.856990 12.219532 -38.655605 -33.943112 0.000000 0.000000 0.000000 -17.951731 0.003267 1.801393 -7.505020 7.535831 5.283010 0.213549 5.387536 9.849775 0.000000 0.000000 0.000000 -10.143742 -3.798115 -4.321242 24.778763 -3.821106 -1.171429 70.614700 -21.106012 -23.518382 0.000000 0.000000 0.000000 -11.857217 43.053938 7.611407 -14.405300 -12.854942 44.878248 52.461212 -49.293547 10.899413 0.000000 0.000000 0.000000
